<?xml version="1.0" standalone="no"?><!DOCTYPE svg PUBLIC "-//W3C//DTD SVG 1.1//EN" "http://www.w3.org/Graphics/SVG/1.1/DTD/svg11.dtd"><svg t="1708657363723" class="icon" viewBox="0 0 1024 1024" version="1.1" xmlns="http://www.w3.org/2000/svg" p-id="12543" xmlns:xlink="http://www.w3.org/1999/xlink" width="200" height="200"><path d="M497.6 334.6c0 7.3-7.9 11.9-14.3 8.2L430.1 312c-2.6-1.5-5.5-2.2-8.3-2.2-5.8 0-11.4 3-14.4 8.4l-0.4 0.6c-1 1.8-1.8 3.8-2.1 5.8-1.1 7.2 2.3 13.8 8.1 17.2l91.1 52.7c2 1.6 4.3 2.7 6.9 3.2 0.2 0 0.3 0.1 0.4 0.2 1.4 0.4 2.9 0.6 4.3 0.6 2.9 0 5.8-0.8 8.4-2.3l93.3-54.3c7.9-4.6 10.7-14.8 6.1-22.7l-0.4-0.7c-1-1.7-2.2-3.3-3.7-4.6-3.2-2.7-7-4-10.8-4-2.9 0-5.8 0.8-8.4 2.3l-54 31.5c-6.3 3.7-14.3-0.9-14.3-8.2V108.2c0-7.3 7.9-11.9 14.3-8.2l306.5 177.3c6.3 3.7 6.3 12.8 0 16.4L515.2 489.2c-2.9 1.7-6.6 1.7-9.5 0L169.4 294.9c-6.3-3.7-6.3-12.8 0-16.4C225 246.3 427.7 129.1 483.4 97c6.3-3.6 14.2 0.9 14.2 8.2v229.4zM166 727.8c-6.4 3.6-6.4 12.8 0 16.5l316.2 182.9c4.8 2.8 10.9-0.7 10.9-6.3V527.5c0-3.4-1.8-6.5-4.7-8.2l-339-196c-4.8-2.8-10.9 0.7-10.9 6.3v362c0 5.6 6 9.1 10.9 6.3l204.8-117.4c4.9-2.8 4.9-9.8 0-12.6l-57.6-33.2c-6.5-3.8-10.1-11.7-7.5-19.8 0.3-0.9 0.7-1.8 1.2-2.7l0.7-1.2c3.1-5.3 8.7-8.3 14.4-8.3 2.8 0 5.7 0.7 8.3 2.2l93.5 53.9c3.8 2.2 6.6 5.9 7.8 10.2 0 0.2 0 0.3 0.1 0.5 0.8 2.5 1 5.1 0.7 7.6l0.1 105.5c0 7.6-5.1 14.6-13.4 16.5-0.9 0.2-1.9 0.3-2.8 0.3h-1.4c-9.2 0-16.6-7.5-16.6-16.7l-0.1-65.7c0-5.6-6-9.1-10.9-6.3L166 727.8z m556.5-208l-0.6 0.3 0.3 0.9 0.7-0.4-0.4-0.8z m-194.8 7.7v391.3c0 7.3 7.9 11.9 14.2 8.2 55.8-32.2 260.6-150.9 316.4-183.2 6.3-3.6 6.3-12.7 0-16.4L660.9 613.1c-6.3-3.7-14.3 0.9-14.3 8.2l-0.1 61.7c0 9.2-7.5 16.7-16.6 16.7h-0.9c-6.7 0-13-4.1-15.6-10.8-0.8-1.9-1.1-4-1.1-6.1l0.1-105.3c-0.3-2.5-0.2-5.1 0.7-7.6 0-0.2 0-0.3 0.1-0.5 1.1-4.3 3.9-7.9 7.8-10.1l93.2-53.9c2.6-1.5 5.5-2.2 8.3-2.2 5.8 0 11.4 3 14.4 8.4l0.5 0.8c3.4 5.8 3 13.3-1.5 19-1.3 1.6-3 2.9-4.8 4l-53.9 31.2c-6.3 3.7-6.3 12.8 0 16.4l194.1 112.5c6.3 3.7 14.3-0.9 14.3-8.2v-356c0-7.3-7.9-11.9-14.3-8.2L532.4 519.3c-2.9 1.7-4.7 4.8-4.7 8.2z" fill="#666" p-id="12544"></path></svg>